<?xml version="1.0" ?><svg viewBox="0 0 100 100" xmlns="http://www.w3.org/2000/svg"><defs><style>
      .a {
        fill: #e8f4fa;
        stroke: #daedf7;
        stroke-miterlimit: 10;
      }

      .b {
        fill: #ffe500;
      }

      .c {
        fill: #fff48c;
      }

      .d {
        fill: none;
      }

      .d, .g {
        stroke: #45413c;
        stroke-linecap: round;
        stroke-linejoin: round;
      }

      .e {
        fill: #ebcb00;
      }

      .f, .l {
        fill: #45413c;
      }

      .f {
        opacity: 0.15;
      }

      .g, .h {
        fill: #fff5e3;
      }

      .i {
        fill: #f7e5c6;
      }

      .j {
        fill: #ff8a14;
      }

      .k {
        fill: #ffaa54;
      }
    </style></defs><title/><g><circle class="a" cx="50" cy="50" r="40"/><g><path class="b" d="M54.231,38.208l7.662,14.656a3.7,3.7,0,0,0,1.059-3.877,16.944,16.944,0,0,1,11.814-8.92,2.205,2.205,0,0,0,.812-3.935C69.75,31.9,62.645,31.932,54.231,38.208Z"/><path class="c" d="M76.455,37.543a2.225,2.225,0,0,0-.877-1.411c-5.828-4.233-12.933-4.2-21.347,2.076l1.621,3.1C63.657,35.955,70.533,35.066,76.455,37.543Z"/><path class="d" d="M54.231,38.208l7.662,14.656a3.7,3.7,0,0,0,1.059-3.877,16.944,16.944,0,0,1,11.814-8.92,2.205,2.205,0,0,0,.812-3.935C69.75,31.9,62.645,31.932,54.231,38.208Z"/><path class="b" d="M47.176,38.208,39.514,52.864a3.7,3.7,0,0,1-1.059-3.877,16.944,16.944,0,0,0-11.814-8.92,2.205,2.205,0,0,1-.812-3.935C31.657,31.9,38.762,31.932,47.176,38.208Z"/><path class="c" d="M24.954,37.534a2.2,2.2,0,0,1,.875-1.4c5.828-4.233,12.933-4.2,21.347,2.076l-1.62,3.1C37.75,35.955,30.876,35.058,24.954,37.534Z"/><path class="d" d="M47.176,38.208,39.514,52.864a3.7,3.7,0,0,1-1.059-3.877,16.944,16.944,0,0,0-11.814-8.92,2.205,2.205,0,0,1-.812-3.935C31.657,31.9,38.762,31.932,47.176,38.208Z"/><path class="b" d="M66.43,46.009A43.474,43.474,0,0,1,63.657,30.8a12.95,12.95,0,1,0-25.9,0,43.051,43.051,0,0,1-2.773,15.206,21.538,21.538,0,0,0-1.412,7.433,17.135,17.135,0,0,0,34.27,0A21.515,21.515,0,0,0,66.43,46.009Z"/><path class="e" d="M50.707,17.853a12.936,12.936,0,0,0-10.724,5.688l3.138-.791a1.1,1.1,0,0,1,1.065.306l2.286,2.383a1.128,1.128,0,0,0,1.694-.073l2.276-2.827a1.1,1.1,0,0,1,1.651-.075l3.583,3.7a1.179,1.179,0,0,0,1.572.108l1.8-1.407a1.1,1.1,0,0,1,1.436.067l2.76,2.605A12.955,12.955,0,0,0,50.707,17.853Z"/><polygon class="f" points="21.754 69.531 17.551 71.874 21.065 75.388 23.408 72.46 26.853 70.511 21.754 69.531"/><polygon class="f" points="26.91 72.868 30.775 71.448 33.572 76.712 27.897 77.205 26.91 72.868"/><polygon class="f" points="82.668 69.587 79.481 72.539 74.621 68.548 79.947 65.764 82.668 69.587"/><path class="f" d="M68.378,78.543a.551.551,0,0,1-.2-1.057c1.376-.593,2.854-1.227,2.8-1.191s.991-1.848,1.719-3.139a.551.551,0,0,1,1.012.127l1.283,4.742a.551.551,0,0,1-.548.695Z"/><path class="g" d="M69.481,77.006a.551.551,0,0,1-.2-1.057l.583-.25a4.353,4.353,0,0,0,2.118-1.924c.2-.363.415-.754.616-1.112a.551.551,0,0,1,1.012.127l.989,3.654a.55.55,0,0,1-.548.695Z"/><path class="d" d="M66.43,46.009A43.474,43.474,0,0,1,63.657,30.8a12.95,12.95,0,1,0-25.9,0,43.051,43.051,0,0,1-2.773,15.206,21.538,21.538,0,0,0-1.412,7.433,17.135,17.135,0,0,0,34.27,0A21.515,21.515,0,0,0,66.43,46.009Z"/><ellipse class="f" cx="50.707" cy="77.825" rx="15.436" ry="2.437"/><path class="h" d="M70.35,48.331a1.1,1.1,0,0,0-1.779-.674l-5.133,4.137a1.1,1.1,0,0,1-1.505-.114l-3.74-4.086A1.1,1.1,0,0,0,56.6,47.56l-5.111,5.124a1.1,1.1,0,0,1-1.561,0L44.815,47.56a1.1,1.1,0,0,0-1.594.034l-3.74,4.086a1.1,1.1,0,0,1-1.505.114l-5.133-4.137a1.1,1.1,0,0,0-1.779.674,38.111,38.111,0,0,0-.543,6.322c0,14.508,9.038,21.991,20.186,21.991s20.186-7.483,20.186-21.991A38.111,38.111,0,0,0,70.35,48.331Z"/><path class="i" d="M50.677,72.108c-8.39,0-15.693-3.823-19.548-11.285,2.213,10.441,10.113,15.821,19.548,15.821s17.334-5.38,19.547-15.821C66.369,68.285,59.067,72.108,50.677,72.108Z"/><path class="d" d="M70.35,48.331a1.1,1.1,0,0,0-1.779-.674l-5.133,4.137a1.1,1.1,0,0,1-1.505-.114l-3.74-4.086A1.1,1.1,0,0,0,56.6,47.56l-5.111,5.124a1.1,1.1,0,0,1-1.561,0L44.815,47.56a1.1,1.1,0,0,0-1.594.034l-3.74,4.086a1.1,1.1,0,0,1-1.505.114l-5.133-4.137a1.1,1.1,0,0,0-1.779.674,38.111,38.111,0,0,0-.543,6.322c0,14.508,9.038,21.991,20.186,21.991s20.186-7.483,20.186-21.991A38.111,38.111,0,0,0,70.35,48.331Z"/><path class="j" d="M47.754,34.628a1.1,1.1,0,0,0-.342,1.734l2.468,2.73a1.1,1.1,0,0,0,1.627.009l2.521-2.725a1.1,1.1,0,0,0-.342-1.748A6.617,6.617,0,0,0,47.754,34.628Z"/><path class="k" d="M47.783,36.772a6.612,6.612,0,0,1,5.877,0l.368-.4a1.1,1.1,0,0,0-.342-1.748,6.617,6.617,0,0,0-5.932,0,1.1,1.1,0,0,0-.342,1.735Z"/><path class="d" d="M47.754,34.628a1.1,1.1,0,0,0-.342,1.734l2.468,2.73a1.1,1.1,0,0,0,1.627.009l2.521-2.725a1.1,1.1,0,0,0-.342-1.748A6.617,6.617,0,0,0,47.754,34.628Z"/><g><circle class="l" cx="44.643" cy="27.633" r="1.654"/><circle class="l" cx="56.771" cy="27.633" r="1.654"/></g><path class="g" d="M22.176,68.144a2.781,2.781,0,0,0-1.881.3l-2.68,1.494a.551.551,0,0,0-.122.871l2.563,2.563a.551.551,0,0,0,.82-.045L22.418,71.4a3.468,3.468,0,0,1,1-.848l1.56-.882a.551.551,0,0,0-.167-1.021Z"/><path class="g" d="M26.96,72.544a.553.553,0,0,1,.348-.64l2.332-.857a.55.55,0,0,1,.677.259l1.727,3.249a.552.552,0,0,1-.44.808l-3.446.3a.551.551,0,0,1-.585-.427Z"/><path class="g" d="M81.77,67.9a.55.55,0,0,1-.075.724l-1.823,1.689a.551.551,0,0,1-.724.021L76.3,68a.552.552,0,0,1,.095-.915l3.065-1.6a.553.553,0,0,1,.7.169Z"/><path class="g" d="M39.784,20.882a.578.578,0,0,1-.554-.966c4.549-4.637,10.6-7.342,16-5.689,4.641,1.419,7.878,5.765,9.447,11.009a.37.37,0,0,1-.609.375l-3.588-3.386a1.1,1.1,0,0,0-1.436-.067l-1.8,1.407a1.178,1.178,0,0,1-1.572-.109l-3.583-3.7a1.1,1.1,0,0,0-1.651.075l-2.276,2.827a1.128,1.128,0,0,1-1.694.073l-2.286-2.383a1.1,1.1,0,0,0-1.065-.306Z"/></g></g></svg>