<svg width="240" height="240" viewBox="0 0 240 240" fill="none" xmlns="http://www.w3.org/2000/svg">
<path d="M150.565 62.435C157.985 55.0151 170.015 55.0151 177.435 62.435C184.855 69.855 184.855 81.8851 177.435 89.3051C170.015 96.725 157.985 96.725 150.565 89.3051C146.123 84.8629 144.34 78.7684 145.217 73" stroke="#50BEAF" stroke-width="3" stroke-linecap="round"/>
<circle cx="133" cy="106.849" r="10.5" transform="rotate(45 133 106.849)" stroke="#50BEAF" stroke-width="3"/>
<path d="M152.393 45.7175C152.393 45.7175 131.491 54.1851 114.578 71.0976C101.616 84.0598 94.4334 95.2184 91.4551 100.393C90.4061 102.215 90.7776 104.467 92.2541 105.964L113 127" stroke="#50BEAF" stroke-width="3" stroke-linecap="round" stroke-linejoin="round"/>
<path d="M80 105L107.5 132.5L114.375 139.375L117.813 142.813M135 160L128.125 153.125L124.688 149.688" stroke="#50BEAF" stroke-width="3" stroke-linecap="round" stroke-linejoin="round"/>
<path d="M75 136L75 145L95 165L104.5 165" stroke="#F0E14B" stroke-width="3" stroke-linecap="round" stroke-linejoin="round"/>
<path d="M176.291 32.8994C176.291 32.8994 175.853 45.1896 185.483 54.8197C195.113 64.4498 207.403 64.0121 207.403 64.0121" stroke="#50BEAF" stroke-width="3" stroke-linecap="round" stroke-linejoin="round"/>
<path d="M45.0477 179.952L30.0478 179.952L50.0478 164.952L40.0478 160L59.8617 156.724C66.2251 155.672 72.7054 157.753 77.2661 162.314L77.6859 162.734C82.2467 167.295 84.328 173.775 83.2759 180.138L80 199.952L75.0478 189.952L60.0476 209.952L60.0477 179.952L52.5477 179.952" stroke="#F0E14B" stroke-width="3" stroke-linecap="round" stroke-linejoin="round"/>
<path d="M97.6096 76.3764L78.7555 71.7227C77.4378 71.3975 76.0452 71.7625 75.0565 72.6923L70.1825 77.2762M66.9645 127.802L24.9645 119.802L50.8033 95.5017L63.7228 83.3514" stroke="#50BEAF" stroke-width="3" stroke-linecap="round" stroke-linejoin="round"/>
<path d="M163.39 142.158L168.044 161.012C168.369 162.329 168.004 163.722 167.075 164.711L144.265 188.964L138.19 195.424M111.964 172.803L119.964 214.803L132.115 201.883" stroke="#50BEAF" stroke-width="3" stroke-linecap="round" stroke-linejoin="round"/>
<path d="M188.668 114.5C184.079 121.041 178.813 127.27 173.005 133.079C145.801 160.282 112.071 172.587 112.071 172.587L67.4544 127.971C67.4544 127.971 80.1131 93.8869 106.963 67.0368C133.414 40.586 169.513 24.9945 203.484 34.57C204.445 34.841 205.2 35.5936 205.471 36.5549C210.947 55.9512 208.32 75.9344 200.067 94.5C198.562 97.8845 196.871 101.222 195.007 104.5" stroke="#50BEAF" stroke-width="3" stroke-linecap="round"/>
<circle cx="100" cy="190" r="3" stroke="#F0E14B" stroke-width="2"/>
<circle cx="30" cy="195" r="3" stroke="#F0E14B" stroke-width="2"/>
<circle cx="40" cy="145" r="3" stroke="#F0E14B" stroke-width="2"/>
</svg>
